<?xml version="1.0" standalone="no"?>
<!DOCTYPE svg PUBLIC "-//W3C//DTD SVG 20010904//EN"
 "http://www.w3.org/TR/2001/REC-SVG-20010904/DTD/svg10.dtd">
<svg version="1.0" xmlns="http://www.w3.org/2000/svg"
 width="512.000000pt" height="512.000000pt" viewBox="0 0 512.000000 512.000000"
 preserveAspectRatio="xMidYMid meet">
<metadata>
Created by potrace 1.14, written by Peter Selinger 2001-2017
</metadata>
<g transform="translate(0.000000,512.000000) scale(0.100000,-0.100000)"
fill="#000000" stroke="none">
<path d="M0 2560 l0 -2560 2560 0 2560 0 0 2560 0 2560 -2560 0 -2560 0 0
-2560z m1210 75 l0 -935 500 0 500 0 0 -110 0 -110 -625 0 -625 0 0 1045 0
1045 125 0 125 0 0 -935z m1702 391 l3 -544 108 136 c59 76 259 320 445 544
l337 407 154 0 c144 1 153 0 140 -16 -8 -10 -173 -208 -366 -441 l-353 -423
375 -599 c206 -330 375 -602 375 -605 0 -3 -66 -5 -147 -5 l-148 1 -314 510
c-247 401 -317 507 -326 497 -6 -7 -73 -86 -148 -175 l-137 -162 0 -335 0
-336 -130 0 -130 0 0 1045 0 1045 130 0 130 0 2 -544z"/>
</g>
</svg>
